<svg width="207" height="106" viewBox="0 0 207 106" fill="none" xmlns="http://www.w3.org/2000/svg">
<path d="M178.808 19.0245C176.48 20.1516 162.974 25.2034 169.753 28.1772C175.076 30.5119 181.846 23.3853 186.871 23.0569C186.876 25.9872 185.703 28.6269 186.834 31.647C188.159 35.1837 190.033 35.4747 191.76 32.471C193.106 30.1308 193.283 26.8371 194.658 24.3151C196.182 21.5212 198.966 18.0972 198.24 14.7155C197.555 11.52 195.107 10.7578 191.957 9.8385C188.181 8.73669 184.04 6.17041 180.221 5.57012C176.589 4.99925 175.066 6.43466 177.108 9.39408C178.883 11.9663 183.592 13.8265 186.318 15.4201C185.882 15.7925 179.125 19.4648 178.808 19.0245C178.862 19.0994 176.208 20.2832 178.808 19.0245Z" fill="#F2CAF8"/>
<path d="M109.041 48.5359C106.069 49.3977 103.405 51.2683 100.78 52.6897C98.095 54.1444 92.858 56.068 91.0051 58.1059C85.694 63.9469 97.4575 62.8151 100.928 61.1557C105.676 58.8849 112.635 56.6484 116.668 53.5443C123.087 48.6032 113.771 46.6656 109.041 48.5359C109.774 48.2457 106.387 49.3055 109.041 48.5359Z" fill="#F2CAF8"/>
<path d="M66.709 68.6146C63.1635 70.0173 52.0728 73.1682 50.6384 76.5347C47.9126 82.9319 60.4575 79.0736 62.3818 78.4297C66.7491 76.9684 76.7274 73.5894 78.8557 69.901C83.1241 62.5041 69.5917 67.4742 66.709 68.6146Z" fill="#F2CAF8"/>
<path d="M142.127 42.013C146.034 40.4688 155.737 37.3373 156.081 32.8037C156.469 27.6897 148.158 31.4226 145.772 32.4872C141.907 34.2115 130.764 36.5369 129.453 40.7863C127.292 47.7934 139.54 43.0355 142.127 42.013Z" fill="#F2CAF8"/>
<path d="M29.3855 85.5298C26.2391 86.7781 23.1922 88.1274 20.1707 89.5789C18.1076 90.57 11.8823 92.0871 10.9269 93.7792C7.34978 100.114 21.1827 95.0893 23.0902 94.4487C28.6198 92.5917 36.2676 91.1218 40.5014 87.4456C42.9905 85.2839 43.9165 82.9208 39.5707 82.3888C36.1988 81.9758 32.2277 84.4022 29.3855 85.5298Z" fill="#F2CAF8"/>
</svg>
