<svg width="207" height="106" viewBox="0 0 207 106" fill="none" xmlns="http://www.w3.org/2000/svg">
<path d="M178.806 86.3301C176.478 85.203 162.972 80.1512 169.751 77.1775C175.074 74.8428 181.844 81.9693 186.869 82.2978C186.874 79.3675 185.701 76.7278 186.832 73.7077C188.157 70.1709 190.031 69.8799 191.758 72.8836C193.104 75.2238 193.281 78.5176 194.656 81.0395C196.18 83.8334 198.964 87.2575 198.238 90.6392C197.553 93.8347 195.105 94.5968 191.955 95.5162C188.179 96.618 184.038 99.1842 180.219 99.7845C176.587 100.355 175.064 98.92 177.106 95.9606C178.881 93.3883 183.59 91.5282 186.316 89.9345C185.88 89.5622 179.123 85.8899 178.806 86.3301C178.86 86.2552 176.207 85.0714 178.806 86.3301Z" fill="#F2CAF8"/>
<path d="M109.039 56.8188C106.067 55.957 103.403 54.0863 100.779 52.665C98.0931 51.2103 92.8561 49.2867 91.0031 47.2487C85.692 41.4078 97.4556 42.5395 100.926 44.199C105.674 46.4697 112.634 48.7063 116.666 51.8103C123.085 56.7515 113.769 58.6891 109.039 56.8188C109.772 57.109 106.385 56.0491 109.039 56.8188Z" fill="#F2CAF8"/>
<path d="M66.709 36.74C63.1635 35.3373 52.0728 32.1865 50.6384 28.82C47.9126 22.4227 60.4575 26.2811 62.3818 26.9249C66.7491 28.3863 76.7274 31.7652 78.8557 35.4536C83.1241 42.8505 69.5917 37.8805 66.709 36.74Z" fill="#F2CAF8"/>
<path d="M142.127 63.3417C146.034 64.8858 155.737 68.0173 156.081 72.5509C156.469 77.665 148.158 73.932 145.772 72.8675C141.907 71.1431 130.764 68.8177 129.453 64.5683C127.292 57.5613 139.54 62.3192 142.127 63.3417Z" fill="#F2CAF8"/>
<path d="M29.3855 19.8249C26.2391 18.5765 23.1922 17.2273 20.1707 15.7758C18.1076 14.7846 11.8823 13.2676 10.9269 11.5754C7.34978 5.24026 21.1827 10.2653 23.0902 10.906C28.6198 12.763 36.2676 14.2329 40.5014 17.9091C42.9905 20.0707 43.9165 22.4338 39.5707 22.9659C36.1988 23.3789 32.2277 20.9525 29.3855 19.8249Z" fill="#F2CAF8"/>
</svg>
