<svg width="28" height="28" viewBox="0 0 28 28" fill="none" xmlns="http://www.w3.org/2000/svg">
<path d="M14 15.1673V2.33398L23.3333 7.00065L14 11.6673" stroke="#8A51A3" stroke-width="2" stroke-linecap="round" stroke-linejoin="round"/>
<path d="M23.9875 11.9256C24.6083 13.8391 24.6664 15.8906 24.1548 17.8362C23.6432 19.7818 22.5835 21.5394 21.1018 22.9C19.62 24.2607 17.7786 25.167 15.7966 25.5112C13.8145 25.8554 11.7754 25.623 9.92161 24.8416C8.06787 24.0602 6.47761 22.7628 5.34003 21.1036C4.20245 19.4445 3.56543 17.4934 3.50478 15.4827C3.44412 13.4719 3.96237 11.486 4.99786 9.76127C6.03336 8.03656 7.54252 6.64561 9.34579 5.75391" stroke="#8A51A3" stroke-width="2" stroke-linecap="round" stroke-linejoin="round"/>
<path d="M9.33351 11.6641C8.7489 12.4423 8.3683 13.3544 8.2264 14.3173C8.08449 15.2802 8.18578 16.2633 8.52105 17.1771C8.85631 18.0908 9.41489 18.9062 10.1459 19.5488C10.8769 20.1915 11.7571 20.641 12.7063 20.8564C13.6554 21.0719 14.6434 21.0464 15.5802 20.7822C16.5171 20.5181 17.3729 20.0238 18.0698 19.3443C18.7666 18.6648 19.2824 17.8218 19.5701 16.8919C19.8578 15.9621 19.9082 14.975 19.7168 14.0207" stroke="#8A51A3" stroke-width="2" stroke-linecap="round" stroke-linejoin="round"/>
</svg>
